# xmcd
#
# Track frame offsets: 
#        150
#        13710
#        29909
#        40915
#        51745
#        71920
#        95329
#        115305
#        132741
#        142373
#        162466
#        181967
#        199423
#        208460
#        221815
#        246894
#        264797
#        278102
#        282780
#        297196
#
# Disc length: 4092 seconds
#
# Revision: 1
# Processed by: cddbd v1.4PL0 Copyright (c) Steve Scherf et al.
# Submitted via: ExactAudioCopy v0.90b4
#
DISCID=5c0ffa14
DTITLE=Various Artist - Dirt Music
DYEAR=2001
DGENRE=Blues
TTITLE0=Keb' Mo' - Every Morning
TTITLE1=Tim O'Brien and Darrell Scott - Long Time Gone
TTITLE2=David Hyams - Watching The Wheels
TTITLE3=Rory Block - Got To Have You Be My Man
TTITLE4=Matt Taylor and the White Pointers - I Remember When I Was Young
TTITLE5=Backsliders - Down By The Riverbed
TTITLE6=Renee Geyer with Uncle Bill - I Scare Myself
TTITLE7=Mud Crab Trio - I'll Be Gone
TTITLE8=Lucky Oceans - Irene Goodnight
TTITLE9=June Tabor - He Fades Away
TTITLE10=Broderick Smith - A River Runs Through My Heart
TTITLE11=Lucky Oceans and the White Pointers - Look At The Moon
TTITLE12=Lucky Oceans and the White Pointers - White Point Breakdown
TTITLE13=Sensitive New Age Cowpersons - I Still Haven't Found What I'm
TTITLE13=Looking For
TTITLE14=Eliza Carthy with John Reed and Tristan Glover - I Drew My Ship
TTITLE14=Into The Harbour/Medley
TTITLE15=Ten Cent Shooters - Kokomo Blues
TTITLE16=Jim Fisher and the White Pointers - Keep Your Lamp Trimmed And 
TTITLE16=Burning
TTITLE17=Lucky Oceans - One
TTITLE18=Matt Taylor and the White Pointers - Nobody's Fault But Mine
TTITLE19=Chris Whitley - Dirt Floor
EXTD=
EXTT0=Keb' Mo'
EXTT1=Tim O'Brien And Darrell Scott
EXTT2=David Hyams
EXTT3=Rory Block
EXTT4=Matt Taylor And The White Pointers
EXTT5=Backsliders
EXTT6=Renee Geyer
EXTT7=Mud Crab Trio
EXTT8=Lucky Oceans
EXTT9=June Tabor
EXTT10=Broderick Smith
EXTT11=Lucky Oceans And The White Pointers
EXTT12=Lucky Oceans And The White Pointers
EXTT13=Sensitive New Age Cowpersons
EXTT14=Eliza Carthy, John Reed and Tristan Glover
EXTT15=Ten Cent Shooters
EXTT16=Jim Fisher And The White Pointers
EXTT17=Lucky Oceans
EXTT18=Matt Taylor And The White Pointers
EXTT19=Chris Whitely
PLAYORDER=
